<mxfile host="app.diagrams.net" modified="2023-01-14T03:29:38.682Z" agent="5.0 (Macintosh; Intel Mac OS X 10_13_6) AppleWebKit/605.1.15 (KHTML, like Gecko) Version/13.1.2 Safari/605.1.15" version="20.8.5" etag="xVxPCzKzXRQcqdh1FOTJ" type="github">
  <diagram id="xb8P4gNRCWOiyWY3lECt" name="第 1 页">
    <mxGraphModel dx="1434" dy="1078" grid="0" gridSize="10" guides="1" tooltips="1" connect="1" arrows="1" fold="1" page="1" pageScale="1" pageWidth="827" pageHeight="1169" math="0" shadow="0">
      <root>
        <mxCell id="0" />
        <mxCell id="1" parent="0" />
        <mxCell id="TwxXEa0ajLt5vSesdO_o-12" value="1" style="whiteSpace=wrap;html=1;aspect=fixed;direction=south;" vertex="1" parent="1">
          <mxGeometry width="30" height="30" as="geometry" />
        </mxCell>
        <mxCell id="TwxXEa0ajLt5vSesdO_o-13" value="3" style="whiteSpace=wrap;html=1;aspect=fixed;direction=south;" vertex="1" parent="1">
          <mxGeometry x="30" width="30" height="30" as="geometry" />
        </mxCell>
        <mxCell id="TwxXEa0ajLt5vSesdO_o-14" value="5" style="whiteSpace=wrap;html=1;aspect=fixed;direction=south;" vertex="1" parent="1">
          <mxGeometry x="60" width="30" height="30" as="geometry" />
        </mxCell>
        <mxCell id="TwxXEa0ajLt5vSesdO_o-15" value="8" style="whiteSpace=wrap;html=1;aspect=fixed;direction=south;" vertex="1" parent="1">
          <mxGeometry x="90" width="30" height="30" as="geometry" />
        </mxCell>
        <mxCell id="TwxXEa0ajLt5vSesdO_o-16" value="12" style="whiteSpace=wrap;html=1;aspect=fixed;direction=south;" vertex="1" parent="1">
          <mxGeometry x="120" width="30" height="30" as="geometry" />
        </mxCell>
        <mxCell id="TwxXEa0ajLt5vSesdO_o-17" value="13" style="whiteSpace=wrap;html=1;aspect=fixed;direction=south;" vertex="1" parent="1">
          <mxGeometry x="150" width="30" height="30" as="geometry" />
        </mxCell>
        <mxCell id="TwxXEa0ajLt5vSesdO_o-18" value="15" style="whiteSpace=wrap;html=1;aspect=fixed;direction=south;" vertex="1" parent="1">
          <mxGeometry x="180" width="30" height="30" as="geometry" />
        </mxCell>
        <mxCell id="TwxXEa0ajLt5vSesdO_o-19" value="16" style="whiteSpace=wrap;html=1;aspect=fixed;direction=south;" vertex="1" parent="1">
          <mxGeometry x="210" width="30" height="30" as="geometry" />
        </mxCell>
        <mxCell id="TwxXEa0ajLt5vSesdO_o-20" value="18" style="whiteSpace=wrap;html=1;aspect=fixed;direction=south;" vertex="1" parent="1">
          <mxGeometry x="240" width="30" height="30" as="geometry" />
        </mxCell>
        <mxCell id="TwxXEa0ajLt5vSesdO_o-21" value="20" style="whiteSpace=wrap;html=1;aspect=fixed;direction=south;" vertex="1" parent="1">
          <mxGeometry x="270" width="30" height="30" as="geometry" />
        </mxCell>
        <mxCell id="TwxXEa0ajLt5vSesdO_o-22" value="22" style="whiteSpace=wrap;html=1;aspect=fixed;direction=south;" vertex="1" parent="1">
          <mxGeometry x="300" width="30" height="30" as="geometry" />
        </mxCell>
        <mxCell id="TwxXEa0ajLt5vSesdO_o-23" value="30" style="whiteSpace=wrap;html=1;aspect=fixed;direction=south;" vertex="1" parent="1">
          <mxGeometry x="330" width="30" height="30" as="geometry" />
        </mxCell>
        <mxCell id="TwxXEa0ajLt5vSesdO_o-24" value="40" style="whiteSpace=wrap;html=1;aspect=fixed;direction=south;" vertex="1" parent="1">
          <mxGeometry x="360" width="30" height="30" as="geometry" />
        </mxCell>
        <mxCell id="TwxXEa0ajLt5vSesdO_o-25" value="50" style="whiteSpace=wrap;html=1;aspect=fixed;direction=south;" vertex="1" parent="1">
          <mxGeometry x="390" width="30" height="30" as="geometry" />
        </mxCell>
        <mxCell id="TwxXEa0ajLt5vSesdO_o-26" value="55" style="whiteSpace=wrap;html=1;aspect=fixed;direction=south;" vertex="1" parent="1">
          <mxGeometry x="420" width="30" height="30" as="geometry" />
        </mxCell>
        <mxCell id="TwxXEa0ajLt5vSesdO_o-27" value="67" style="whiteSpace=wrap;html=1;aspect=fixed;direction=south;" vertex="1" parent="1">
          <mxGeometry x="450" width="30" height="30" as="geometry" />
        </mxCell>
        <mxCell id="TwxXEa0ajLt5vSesdO_o-60" value="0" style="text;html=1;strokeColor=none;fillColor=none;align=center;verticalAlign=middle;whiteSpace=wrap;rounded=0;fontSize=16;" vertex="1" parent="1">
          <mxGeometry x="4" y="40" width="22" height="13" as="geometry" />
        </mxCell>
        <mxCell id="TwxXEa0ajLt5vSesdO_o-62" value="1" style="text;html=1;strokeColor=none;fillColor=none;align=center;verticalAlign=middle;whiteSpace=wrap;rounded=0;fontSize=16;" vertex="1" parent="1">
          <mxGeometry x="34" y="40" width="22" height="13" as="geometry" />
        </mxCell>
        <mxCell id="TwxXEa0ajLt5vSesdO_o-63" value="2" style="text;html=1;strokeColor=none;fillColor=none;align=center;verticalAlign=middle;whiteSpace=wrap;rounded=0;fontSize=16;" vertex="1" parent="1">
          <mxGeometry x="64" y="40" width="22" height="13" as="geometry" />
        </mxCell>
        <mxCell id="TwxXEa0ajLt5vSesdO_o-64" value="3" style="text;html=1;strokeColor=none;fillColor=none;align=center;verticalAlign=middle;whiteSpace=wrap;rounded=0;fontSize=16;" vertex="1" parent="1">
          <mxGeometry x="94" y="40" width="22" height="13" as="geometry" />
        </mxCell>
        <mxCell id="TwxXEa0ajLt5vSesdO_o-65" value="4" style="text;html=1;strokeColor=none;fillColor=none;align=center;verticalAlign=middle;whiteSpace=wrap;rounded=0;fontSize=16;" vertex="1" parent="1">
          <mxGeometry x="124" y="40" width="22" height="13" as="geometry" />
        </mxCell>
        <mxCell id="TwxXEa0ajLt5vSesdO_o-66" value="5" style="text;html=1;strokeColor=none;fillColor=none;align=center;verticalAlign=middle;whiteSpace=wrap;rounded=0;fontSize=16;" vertex="1" parent="1">
          <mxGeometry x="154" y="40" width="22" height="13" as="geometry" />
        </mxCell>
        <mxCell id="TwxXEa0ajLt5vSesdO_o-67" value="6" style="text;html=1;strokeColor=none;fillColor=none;align=center;verticalAlign=middle;whiteSpace=wrap;rounded=0;fontSize=16;" vertex="1" parent="1">
          <mxGeometry x="184" y="40" width="22" height="13" as="geometry" />
        </mxCell>
        <mxCell id="TwxXEa0ajLt5vSesdO_o-68" value="7" style="text;html=1;strokeColor=none;fillColor=none;align=center;verticalAlign=middle;whiteSpace=wrap;rounded=0;fontSize=16;" vertex="1" parent="1">
          <mxGeometry x="214" y="40" width="22" height="13" as="geometry" />
        </mxCell>
        <mxCell id="TwxXEa0ajLt5vSesdO_o-69" value="8" style="text;html=1;strokeColor=none;fillColor=none;align=center;verticalAlign=middle;whiteSpace=wrap;rounded=0;fontSize=16;" vertex="1" parent="1">
          <mxGeometry x="244" y="40" width="22" height="13" as="geometry" />
        </mxCell>
        <mxCell id="TwxXEa0ajLt5vSesdO_o-70" value="9" style="text;html=1;strokeColor=none;fillColor=none;align=center;verticalAlign=middle;whiteSpace=wrap;rounded=0;fontSize=16;" vertex="1" parent="1">
          <mxGeometry x="274" y="40" width="22" height="13" as="geometry" />
        </mxCell>
        <mxCell id="TwxXEa0ajLt5vSesdO_o-71" value="10" style="text;html=1;strokeColor=none;fillColor=none;align=center;verticalAlign=middle;whiteSpace=wrap;rounded=0;fontSize=16;" vertex="1" parent="1">
          <mxGeometry x="304" y="40" width="22" height="13" as="geometry" />
        </mxCell>
        <mxCell id="TwxXEa0ajLt5vSesdO_o-72" value="11" style="text;html=1;strokeColor=none;fillColor=none;align=center;verticalAlign=middle;whiteSpace=wrap;rounded=0;fontSize=16;" vertex="1" parent="1">
          <mxGeometry x="334" y="40" width="22" height="13" as="geometry" />
        </mxCell>
        <mxCell id="TwxXEa0ajLt5vSesdO_o-73" value="12&lt;span style=&quot;white-space: pre;&quot;&gt;&lt;br&gt;&lt;/span&gt;" style="text;html=1;strokeColor=none;fillColor=none;align=center;verticalAlign=middle;whiteSpace=wrap;rounded=0;fontSize=16;" vertex="1" parent="1">
          <mxGeometry x="364" y="40" width="22" height="13" as="geometry" />
        </mxCell>
        <mxCell id="TwxXEa0ajLt5vSesdO_o-74" value="13" style="text;html=1;strokeColor=none;fillColor=none;align=center;verticalAlign=middle;whiteSpace=wrap;rounded=0;fontSize=16;" vertex="1" parent="1">
          <mxGeometry x="394" y="40" width="22" height="13" as="geometry" />
        </mxCell>
        <mxCell id="TwxXEa0ajLt5vSesdO_o-75" value="14&amp;nbsp;" style="text;html=1;strokeColor=none;fillColor=none;align=center;verticalAlign=middle;whiteSpace=wrap;rounded=0;fontSize=16;" vertex="1" parent="1">
          <mxGeometry x="424" y="40" width="22" height="13" as="geometry" />
        </mxCell>
        <mxCell id="TwxXEa0ajLt5vSesdO_o-76" value="15" style="text;html=1;strokeColor=none;fillColor=none;align=center;verticalAlign=middle;whiteSpace=wrap;rounded=0;fontSize=16;" vertex="1" parent="1">
          <mxGeometry x="454" y="40" width="22" height="13" as="geometry" />
        </mxCell>
      </root>
    </mxGraphModel>
  </diagram>
</mxfile>
